Coordinates
version=1
nRows=24
nColumns=24
inDegrees=yes

Units are S.I. units (second, meters, Newtons, ...)
Angles are in degrees.

endheader
time	pelvis_tilt	pelvis_list	pelvis_rotation	pelvis_tx	pelvis_ty	pelvis_tz	hip_flexion_r	hip_adduction_r	hip_rotation_r	knee_angle_r	ankle_angle_r	subtalar_angle_r	mtp_angle_r	hip_flexion_l	hip_adduction_l	hip_rotation_l	knee_angle_l	ankle_angle_l	subtalar_angle_l	mtp_angle_l	lumbar_extension	lumbar_bending	lumbar_rotation
      4.74000000	      8.92628858	     -1.09583377	      2.27755059	     -1.01723309	      0.89198613	      0.03092106	    -32.07518210	      6.84994756	     -5.94085453	     -4.13809309	     20.71643201	      2.57420888	      0.00000000	     12.75094904	      4.79885040	      7.74569223	     -2.37624502	      6.87223792	    -14.13474949	      0.00000000	    -28.84152939	      1.47243389	      0.22448868
      4.75000000	      8.99554847	     -0.95503447	      2.61785705	     -0.99914271	      0.89094986	      0.02986773	    -31.60033326	      6.54156340	     -7.72731142	     -7.13023663	     20.01717696	      4.19714041	      0.00000000	     12.93444143	      5.38639846	      6.71434048	     -4.05127852	      6.87944420	    -13.43282267	      0.00000000	    -28.69819085	      1.46661399	     -0.37846063
      4.76000000	      8.99041368	     -0.81369504	      3.05216272	     -0.98113897	      0.89011654	      0.02866947	    -30.74867474	      6.15308221	     -9.48595818	    -10.56941265	     18.71266817	      5.53579454	      0.00000000	     13.34207325	      5.94427060	      5.77756263	     -6.24952252	      6.91152446	    -12.61183275	      0.00000000	    -28.51576949	      1.48114979	     -1.06917879
      4.77000000	      9.00494035	     -0.58804593	      3.53096765	     -0.96332199	      0.88962021	      0.02745457	    -29.61522041	      5.58496650	    -11.13760173	    -14.44039932	     16.78539260	      6.45604557	      0.00000000	     13.84506932	      6.51975475	      4.91637524	     -8.83617686	      7.09233788	    -11.61621587	      0.00000000	    -28.42999438	      1.38922949	     -1.80866366
      4.78000000	      9.10522853	     -0.28740519	      3.97409276	     -0.94580590	      0.88956366	      0.02639795	    -28.27151372	      4.83953038	    -12.45266171	    -18.68568750	     14.18028815	      6.81584582	      0.00000000	     14.38347451	      7.04625029	      3.85658813	    -11.75281431	      7.74596158	    -10.02327144	      0.00000000	    -28.53641892	      1.17404754	     -2.54419734
      4.79000000	      9.15493342	     -0.04380064	      4.36789525	     -0.92865081	      0.88973619	      0.02543089	    -26.54179766	      4.04395780	    -13.36473208	    -23.27216310	     10.94471605	      6.66992643	      0.00000000	     14.98925343	      7.45925174	      3.24147309	    -14.75282468	      8.50439463	     -8.84427958	      0.00000000	    -28.65799566	      1.00536521	     -3.13186356
      4.80000000	      9.19458640	      0.19366141	      4.65648079	     -0.91182234	      0.89012534	      0.02455379	    -24.49251938	      3.12335425	    -13.98525304	    -28.13683331	      7.54104554	      6.45116568	      0.00000000	     15.52300207	      7.84263302	      3.00136762	    -17.65351532	      9.41261609	     -8.12298261	      0.00000000	    -28.81817171	      0.82372596	     -3.57254635
      4.81000000	      9.28529105	      0.49223317	      4.75570117	     -0.89527902	      0.89076985	      0.02394200	    -22.25342864	      2.04056144	    -14.22226899	    -33.14217884	      4.38978186	      6.23007855	      0.00000000	     15.85468209	      8.20238195	      2.63387043	    -20.32125866	     10.62603871	     -7.31979878	      0.00000000	    -29.07896374	      0.51798374	     -3.86374864
      4.82000000	      9.38866313	      0.82943114	      4.64067798	     -0.87896226	      0.89156646	      0.02352669	    -19.84284510	      0.82857898	    -14.12992550	    -38.15665136	      1.98145882	      6.24456578	      0.00000000	     15.92307809	      8.55072660	      2.25017360	    -22.57542895	     11.94301176	     -6.69779398	      0.00000000	    -29.36158934	      0.12521949	     -3.92299371
      4.83000000	      9.42781236	      1.22419334	      4.26789566	     -0.86276181	      0.89241233	      0.02334382	    -17.23294400	     -0.47376709	    -13.60280117	    -43.05389436	      0.63887055	      6.52762672	      0.00000000	     15.71391973	      8.92795250	      1.85655548	    -24.24085408	     13.23129221	     -6.48211097	      0.00000000	    -29.53448011	     -0.39510051	     -3.89325171
      4.84000000	      9.41782045	      1.65031780	      3.70500578	     -0.84666631	      0.89332495	      0.02332626	    -14.50177660	     -1.79319381	    -12.81897808	    -47.67572661	      0.36296118	      6.94370940	      0.00000000	     15.22762980	      9.29391819	      1.32199453	    -25.33587395	     14.55543508	     -6.27917151	      0.00000000	    -29.60452520	     -0.98788849	     -3.68229610
      4.85000000	      9.38234869	      2.10943097	      2.93025477	     -0.83061768	      0.89440418	      0.02352184	    -11.70635522	     -3.07135298	    -11.71900933	    -51.91217531	      1.06918609	      7.44037950	      0.00000000	     14.41668199	      9.65798117	      0.66296697	    -25.80344387	     15.78313301	     -6.21782450	      0.00000000	    -29.58095016	     -1.66574824	     -3.41670581
      4.86000000	      9.31366111	      2.56113646	      2.04208037	     -0.81462327	      0.89566704	      0.02383283	     -8.87262512	     -4.23530556	    -10.47018546	    -55.67007627	      2.44457935	      7.84629939	      0.00000000	     13.35804634	      9.99677537	     -0.10585857	    -25.75214387	     16.94268623	     -6.12504417	      0.00000000	    -29.45331747	     -2.34925286	     -3.11271787
      4.87000000	      9.25261001	      2.96053486	      1.11943386	     -0.79869733	      0.89720731	      0.02417449	     -6.07922034	     -5.21799190	     -9.18241987	    -58.88031414	      4.20052529	      8.14353756	      0.00000000	     12.06468553	     10.29407407	     -0.89030962	    -25.27695836	     17.97791628	     -6.04744741	      0.00000000	    -29.28513961	     -2.95948366	     -2.82723339
      4.88000000	      9.18216280	      3.26773463	      0.26120343	     -0.78283746	      0.89902408	      0.02444853	     -3.35106133	     -5.96248569	     -7.96658121	    -61.49708228	      6.05662440	      8.22559993	      0.00000000	     10.61357529	     10.53708430	     -1.57686431	    -24.49090589	     18.87594480	     -5.92206928	      0.00000000	    -29.06836035	     -3.41757543	     -2.61674281
      4.89000000	      9.11399785	      3.45517874	     -0.45248392	     -0.76708209	      0.90109922	      0.02456569	     -0.73705140	     -6.45662813	     -6.93374028	    -63.51906858	      7.85486179	      8.13913848	      0.00000000	      9.06415597	     10.71255709	     -2.08380200	    -23.53009801	     19.61875604	     -5.84601517	      0.00000000	    -28.85599502	     -3.66839345	     -2.55880885
      4.90000000	      8.99591969	      3.51133077	     -0.92927874	     -0.75139635	      0.90332761	      0.02442575	      1.76649992	     -6.71280218	     -6.19648891	    -64.94473285	      9.53846341	      7.88142590	      0.00000000	      7.50072078	     10.82060263	     -2.26613125	    -22.46896562	     20.20217411	     -5.80184996	      0.00000000	    -28.59436750	     -3.67390041	     -2.66159689
      4.91000000	      8.87535026	      3.46961894	     -1.18407984	     -0.73581859	      0.90566628	      0.02406777	      4.10024346	     -6.79341880	     -5.73624279	    -65.81807840	     11.07373164	      7.50882356	      0.00000000	      5.90887419	     10.87825960	     -2.14042820	    -21.36891051	     20.63186035	     -5.86437916	      0.00000000	    -28.37441030	     -3.48706560	     -2.96034456
      4.92000000	      8.63186458	      3.31821106	     -1.12612318	     -0.72030293	      0.90786165	      0.02335724	      6.35734445	     -6.73513652	     -5.66086124	    -66.17009981	     12.55685808	      7.16172595	      0.00000000	      4.43702746	     10.87220685	     -1.56630318	    -20.28523980	     20.93344093	     -6.13994589	      0.00000000	    -28.04393011	     -3.05364589	     -3.52191124
      4.93000000	      8.36128743	      3.12940904	     -0.90356228	     -0.70484968	      0.90996677	      0.02250671	      8.46491607	     -6.61406667	     -5.78734130	    -66.04317723	     13.94432444	      6.74927982	      0.00000000	      2.94141448	     10.86080305	     -0.61122137	    -19.11019375	     20.85431500	     -6.88847282	      0.00000000	    -27.71901936	     -2.53385823	     -4.18052603
      4.94000000	      8.10496184	      2.90495260	     -0.53205874	     -0.68945620	      0.91193356	      0.02156088	     10.37701502	     -6.44710840	     -6.09295275	    -65.46936059	     15.23238419	      6.39364484	      0.00000000	      1.39363976	     10.80898467	      0.61049886	    -17.88145207	     20.73258437	     -7.83341087	      0.00000000	    -27.44495553	     -1.93901705	     -4.99216249
      4.95000000	      7.81737331	      2.66733985	     -0.06745431	     -0.67410140	      0.91365831	      0.02060544	     12.16092125	     -6.26038174	     -6.50948652	    -64.48725098	     16.44294947	      6.12124904	      0.00000000	     -0.15370756	     10.71121959	      1.95880938	    -16.58905550	     20.47561618	     -8.88260170	      0.00000000	    -27.15504458	     -1.32371190	     -5.84478446
      4.96000000	      7.52718997	      2.43271868	      0.40854133	     -0.65877394	      0.91513718	      0.01974840	     13.80773262	     -6.05429867	     -6.93608566	    -63.12710454	     17.54170973	      5.94736413	      0.00000000	     -1.73884682	     10.57460480	      3.33540187	    -15.20430092	     20.10035801	    -10.07256691	      0.00000000	    -26.88025568	     -0.73819017	     -6.68212981
      4.97000000	      7.24226497	      2.21608114	      0.83798869	     -0.64344691	      0.91635207	      0.01906191	     15.32073768	     -5.82947292	     -7.30458496	    -61.41049118	     18.49910675	      5.86919863	      0.00000000	     -3.37320503	     10.41085153	      4.65670760	    -13.71467395	     19.59850106	    -11.37649855	      0.00000000	    -26.62572641	     -0.22083646	     -7.44421555
